<svg xmlns="http://www.w3.org/2000/svg" xmlns:xlink="http://www.w3.org/1999/xlink" width="1000" zoomAndPan="magnify" viewBox="0 0 750 749.999995" height="1000" preserveAspectRatio="xMidYMid meet" version="1.0"><defs><clipPath id="8600676ab9"><path d="M -155.328125 375 L 375 -155.328125 L 905.328125 375 L 375 905.328125 Z M -155.328125 375 " clip-rule="nonzero"/></clipPath><clipPath id="37877d7a22"><path d="M 109.835938 109.835938 C -36.613281 256.28125 -36.613281 493.71875 109.835938 640.164062 C 256.28125 786.613281 493.71875 786.613281 640.164062 640.164062 C 786.613281 493.71875 786.613281 256.28125 640.164062 109.835938 C 493.71875 -36.613281 256.28125 -36.613281 109.835938 109.835938 Z M 109.835938 109.835938 " clip-rule="nonzero"/></clipPath><clipPath id="e4fb212e3e"><path d="M -155.328125 375 L 375 -155.328125 L 905.328125 375 L 375 905.328125 Z M -155.328125 375 " clip-rule="nonzero"/></clipPath><linearGradient x1="-53.01933" gradientTransform="matrix(2.071602, -2.071602, 2.071602, 2.071602, -155.330074, 375.000017)" y1="0" x2="309.019326" gradientUnits="userSpaceOnUse" y2="0" id="9771eb5e7b"><stop stop-opacity="1" stop-color="rgb(31.799316%, 43.899536%, 100%)" offset="0"/><stop stop-opacity="1" stop-color="rgb(31.799316%, 43.899536%, 100%)" offset="0.125"/><stop stop-opacity="1" stop-color="rgb(31.799316%, 43.899536%, 100%)" offset="0.140625"/><stop stop-opacity="1" stop-color="rgb(31.895447%, 43.893433%, 99.966431%)" offset="0.148438"/><stop stop-opacity="1" stop-color="rgb(32.368469%, 43.865967%, 99.806213%)" offset="0.152344"/><stop stop-opacity="1" stop-color="rgb(32.745361%, 43.844604%, 99.679565%)" offset="0.15625"/><stop stop-opacity="1" stop-color="rgb(33.120728%, 43.823242%, 99.551392%)" offset="0.160156"/><stop stop-opacity="1" stop-color="rgb(33.49762%, 43.80188%, 99.423218%)" offset="0.164062"/><stop stop-opacity="1" stop-color="rgb(33.874512%, 43.780518%, 99.295044%)" offset="0.167969"/><stop stop-opacity="1" stop-color="rgb(34.251404%, 43.759155%, 99.168396%)" offset="0.171875"/><stop stop-opacity="1" stop-color="rgb(34.628296%, 43.737793%, 99.040222%)" offset="0.175781"/><stop stop-opacity="1" stop-color="rgb(35.005188%, 43.716431%, 98.913574%)" offset="0.179687"/><stop stop-opacity="1" stop-color="rgb(35.38208%, 43.693542%, 98.7854%)" offset="0.183594"/><stop stop-opacity="1" stop-color="rgb(35.758972%, 43.67218%, 98.658752%)" offset="0.1875"/><stop stop-opacity="1" stop-color="rgb(36.135864%, 43.650818%, 98.530579%)" offset="0.191406"/><stop stop-opacity="1" stop-color="rgb(36.512756%, 43.629456%, 98.402405%)" offset="0.195312"/><stop stop-opacity="1" stop-color="rgb(36.889648%, 43.608093%, 98.274231%)" offset="0.199219"/><stop stop-opacity="1" stop-color="rgb(37.266541%, 43.586731%, 98.147583%)" offset="0.203125"/><stop stop-opacity="1" stop-color="rgb(37.641907%, 43.565369%, 98.019409%)" offset="0.207031"/><stop stop-opacity="1" stop-color="rgb(38.018799%, 43.544006%, 97.892761%)" offset="0.210938"/><stop stop-opacity="1" stop-color="rgb(38.395691%, 43.521118%, 97.764587%)" offset="0.214844"/><stop stop-opacity="1" stop-color="rgb(38.772583%, 43.499756%, 97.637939%)" offset="0.21875"/><stop stop-opacity="1" stop-color="rgb(39.149475%, 43.478394%, 97.509766%)" offset="0.222656"/><stop stop-opacity="1" stop-color="rgb(39.526367%, 43.457031%, 97.381592%)" offset="0.226562"/><stop stop-opacity="1" stop-color="rgb(39.903259%, 43.435669%, 97.253418%)" offset="0.230469"/><stop stop-opacity="1" stop-color="rgb(40.280151%, 43.414307%, 97.12677%)" offset="0.234375"/><stop stop-opacity="1" stop-color="rgb(40.657043%, 43.392944%, 96.998596%)" offset="0.238281"/><stop stop-opacity="1" stop-color="rgb(41.033936%, 43.371582%, 96.871948%)" offset="0.242188"/><stop stop-opacity="1" stop-color="rgb(41.409302%, 43.35022%, 96.743774%)" offset="0.246094"/><stop stop-opacity="1" stop-color="rgb(41.786194%, 43.328857%, 96.615601%)" offset="0.25"/><stop stop-opacity="1" stop-color="rgb(42.163086%, 43.305969%, 96.487427%)" offset="0.253906"/><stop stop-opacity="1" stop-color="rgb(42.539978%, 43.284607%, 96.360779%)" offset="0.257812"/><stop stop-opacity="1" stop-color="rgb(42.91687%, 43.263245%, 96.232605%)" offset="0.261719"/><stop stop-opacity="1" stop-color="rgb(43.293762%, 43.241882%, 96.105957%)" offset="0.265625"/><stop stop-opacity="1" stop-color="rgb(43.670654%, 43.22052%, 95.977783%)" offset="0.269531"/><stop stop-opacity="1" stop-color="rgb(44.047546%, 43.199158%, 95.851135%)" offset="0.273437"/><stop stop-opacity="1" stop-color="rgb(44.424438%, 43.177795%, 95.722961%)" offset="0.277344"/><stop stop-opacity="1" stop-color="rgb(44.801331%, 43.156433%, 95.594788%)" offset="0.28125"/><stop stop-opacity="1" stop-color="rgb(45.178223%, 43.133545%, 95.466614%)" offset="0.285156"/><stop stop-opacity="1" stop-color="rgb(45.555115%, 43.112183%, 95.339966%)" offset="0.289062"/><stop stop-opacity="1" stop-color="rgb(45.930481%, 43.09082%, 95.211792%)" offset="0.292969"/><stop stop-opacity="1" stop-color="rgb(46.307373%, 43.069458%, 95.085144%)" offset="0.296875"/><stop stop-opacity="1" stop-color="rgb(46.684265%, 43.048096%, 94.95697%)" offset="0.300781"/><stop stop-opacity="1" stop-color="rgb(47.061157%, 43.026733%, 94.830322%)" offset="0.304688"/><stop stop-opacity="1" stop-color="rgb(47.438049%, 43.005371%, 94.702148%)" offset="0.308594"/><stop stop-opacity="1" stop-color="rgb(47.814941%, 42.984009%, 94.573975%)" offset="0.3125"/><stop stop-opacity="1" stop-color="rgb(48.191833%, 42.961121%, 94.445801%)" offset="0.316406"/><stop stop-opacity="1" stop-color="rgb(48.568726%, 42.939758%, 94.319153%)" offset="0.320312"/><stop stop-opacity="1" stop-color="rgb(48.945618%, 42.918396%, 94.190979%)" offset="0.324219"/><stop stop-opacity="1" stop-color="rgb(49.32251%, 42.897034%, 94.064331%)" offset="0.328125"/><stop stop-opacity="1" stop-color="rgb(49.697876%, 42.875671%, 93.936157%)" offset="0.332031"/><stop stop-opacity="1" stop-color="rgb(50.074768%, 42.854309%, 93.809509%)" offset="0.335937"/><stop stop-opacity="1" stop-color="rgb(50.45166%, 42.832947%, 93.681335%)" offset="0.339844"/><stop stop-opacity="1" stop-color="rgb(50.828552%, 42.811584%, 93.553162%)" offset="0.34375"/><stop stop-opacity="1" stop-color="rgb(51.205444%, 42.788696%, 93.424988%)" offset="0.347656"/><stop stop-opacity="1" stop-color="rgb(51.582336%, 42.767334%, 93.29834%)" offset="0.351562"/><stop stop-opacity="1" stop-color="rgb(51.959229%, 42.745972%, 93.170166%)" offset="0.355469"/><stop stop-opacity="1" stop-color="rgb(52.336121%, 42.724609%, 93.043518%)" offset="0.359375"/><stop stop-opacity="1" stop-color="rgb(52.713013%, 42.703247%, 92.915344%)" offset="0.363281"/><stop stop-opacity="1" stop-color="rgb(53.089905%, 42.681885%, 92.788696%)" offset="0.367187"/><stop stop-opacity="1" stop-color="rgb(53.466797%, 42.660522%, 92.660522%)" offset="0.371094"/><stop stop-opacity="1" stop-color="rgb(53.843689%, 42.63916%, 92.532349%)" offset="0.375"/><stop stop-opacity="1" stop-color="rgb(54.219055%, 42.616272%, 92.404175%)" offset="0.378906"/><stop stop-opacity="1" stop-color="rgb(54.595947%, 42.59491%, 92.277527%)" offset="0.382812"/><stop stop-opacity="1" stop-color="rgb(54.972839%, 42.573547%, 92.149353%)" offset="0.386719"/><stop stop-opacity="1" stop-color="rgb(55.349731%, 42.552185%, 92.022705%)" offset="0.390625"/><stop stop-opacity="1" stop-color="rgb(55.726624%, 42.530823%, 91.894531%)" offset="0.394531"/><stop stop-opacity="1" stop-color="rgb(56.103516%, 42.50946%, 91.766357%)" offset="0.398437"/><stop stop-opacity="1" stop-color="rgb(56.480408%, 42.488098%, 91.638184%)" offset="0.402344"/><stop stop-opacity="1" stop-color="rgb(56.8573%, 42.466736%, 91.511536%)" offset="0.40625"/><stop stop-opacity="1" stop-color="rgb(57.234192%, 42.443848%, 91.383362%)" offset="0.410156"/><stop stop-opacity="1" stop-color="rgb(57.611084%, 42.422485%, 91.256714%)" offset="0.414062"/><stop stop-opacity="1" stop-color="rgb(57.987976%, 42.401123%, 91.12854%)" offset="0.417969"/><stop stop-opacity="1" stop-color="rgb(58.364868%, 42.379761%, 91.001892%)" offset="0.421875"/><stop stop-opacity="1" stop-color="rgb(58.740234%, 42.358398%, 90.873718%)" offset="0.425781"/><stop stop-opacity="1" stop-color="rgb(59.117126%, 42.337036%, 90.745544%)" offset="0.429688"/><stop stop-opacity="1" stop-color="rgb(59.494019%, 42.315674%, 90.617371%)" offset="0.433594"/><stop stop-opacity="1" stop-color="rgb(59.870911%, 42.294312%, 90.490723%)" offset="0.4375"/><stop stop-opacity="1" stop-color="rgb(60.247803%, 42.272949%, 90.362549%)" offset="0.441406"/><stop stop-opacity="1" stop-color="rgb(60.624695%, 42.251587%, 90.235901%)" offset="0.445312"/><stop stop-opacity="1" stop-color="rgb(61.001587%, 42.228699%, 90.107727%)" offset="0.449219"/><stop stop-opacity="1" stop-color="rgb(61.378479%, 42.207336%, 89.981079%)" offset="0.453125"/><stop stop-opacity="1" stop-color="rgb(61.755371%, 42.185974%, 89.852905%)" offset="0.457031"/><stop stop-opacity="1" stop-color="rgb(62.132263%, 42.164612%, 89.724731%)" offset="0.460938"/><stop stop-opacity="1" stop-color="rgb(62.507629%, 42.14325%, 89.596558%)" offset="0.464844"/><stop stop-opacity="1" stop-color="rgb(62.884521%, 42.121887%, 89.46991%)" offset="0.46875"/><stop stop-opacity="1" stop-color="rgb(63.261414%, 42.100525%, 89.341736%)" offset="0.472656"/><stop stop-opacity="1" stop-color="rgb(63.638306%, 42.079163%, 89.215088%)" offset="0.476562"/><stop stop-opacity="1" stop-color="rgb(64.015198%, 42.056274%, 89.086914%)" offset="0.480469"/><stop stop-opacity="1" stop-color="rgb(64.39209%, 42.034912%, 88.960266%)" offset="0.484375"/><stop stop-opacity="1" stop-color="rgb(64.768982%, 42.01355%, 88.832092%)" offset="0.488281"/><stop stop-opacity="1" stop-color="rgb(65.145874%, 41.992188%, 88.703918%)" offset="0.492188"/><stop stop-opacity="1" stop-color="rgb(65.522766%, 41.970825%, 88.575745%)" offset="0.496094"/><stop stop-opacity="1" stop-color="rgb(65.899658%, 41.949463%, 88.449097%)" offset="0.5"/><stop stop-opacity="1" stop-color="rgb(66.27655%, 41.928101%, 88.320923%)" offset="0.503906"/><stop stop-opacity="1" stop-color="rgb(66.653442%, 41.906738%, 88.194275%)" offset="0.507812"/><stop stop-opacity="1" stop-color="rgb(67.028809%, 41.88385%, 88.066101%)" offset="0.511719"/><stop stop-opacity="1" stop-color="rgb(67.405701%, 41.862488%, 87.939453%)" offset="0.515625"/><stop stop-opacity="1" stop-color="rgb(67.782593%, 41.841125%, 87.811279%)" offset="0.519531"/><stop stop-opacity="1" stop-color="rgb(68.159485%, 41.819763%, 87.683105%)" offset="0.523437"/><stop stop-opacity="1" stop-color="rgb(68.536377%, 41.798401%, 87.554932%)" offset="0.527344"/><stop stop-opacity="1" stop-color="rgb(68.913269%, 41.777039%, 87.428284%)" offset="0.53125"/><stop stop-opacity="1" stop-color="rgb(69.290161%, 41.755676%, 87.30011%)" offset="0.535156"/><stop stop-opacity="1" stop-color="rgb(69.667053%, 41.734314%, 87.173462%)" offset="0.539062"/><stop stop-opacity="1" stop-color="rgb(70.043945%, 41.711426%, 87.045288%)" offset="0.542969"/><stop stop-opacity="1" stop-color="rgb(70.420837%, 41.690063%, 86.91864%)" offset="0.546875"/><stop stop-opacity="1" stop-color="rgb(70.796204%, 41.668701%, 86.790466%)" offset="0.550781"/><stop stop-opacity="1" stop-color="rgb(71.173096%, 41.647339%, 86.662292%)" offset="0.554687"/><stop stop-opacity="1" stop-color="rgb(71.549988%, 41.625977%, 86.534119%)" offset="0.558594"/><stop stop-opacity="1" stop-color="rgb(71.92688%, 41.604614%, 86.407471%)" offset="0.5625"/><stop stop-opacity="1" stop-color="rgb(72.303772%, 41.583252%, 86.279297%)" offset="0.566406"/><stop stop-opacity="1" stop-color="rgb(72.680664%, 41.56189%, 86.152649%)" offset="0.570312"/><stop stop-opacity="1" stop-color="rgb(73.057556%, 41.539001%, 86.024475%)" offset="0.574219"/><stop stop-opacity="1" stop-color="rgb(73.434448%, 41.517639%, 85.896301%)" offset="0.578125"/><stop stop-opacity="1" stop-color="rgb(73.81134%, 41.496277%, 85.768127%)" offset="0.582031"/><stop stop-opacity="1" stop-color="rgb(74.188232%, 41.474915%, 85.641479%)" offset="0.585938"/><stop stop-opacity="1" stop-color="rgb(74.565125%, 41.453552%, 85.513306%)" offset="0.589844"/><stop stop-opacity="1" stop-color="rgb(74.942017%, 41.43219%, 85.386658%)" offset="0.59375"/><stop stop-opacity="1" stop-color="rgb(75.317383%, 41.410828%, 85.258484%)" offset="0.597656"/><stop stop-opacity="1" stop-color="rgb(75.694275%, 41.389465%, 85.131836%)" offset="0.601562"/><stop stop-opacity="1" stop-color="rgb(76.071167%, 41.368103%, 85.003662%)" offset="0.605469"/><stop stop-opacity="1" stop-color="rgb(76.448059%, 41.346741%, 84.875488%)" offset="0.609375"/><stop stop-opacity="1" stop-color="rgb(76.824951%, 41.323853%, 84.747314%)" offset="0.613281"/><stop stop-opacity="1" stop-color="rgb(77.201843%, 41.30249%, 84.620667%)" offset="0.617188"/><stop stop-opacity="1" stop-color="rgb(77.578735%, 41.281128%, 84.492493%)" offset="0.621094"/><stop stop-opacity="1" stop-color="rgb(77.955627%, 41.259766%, 84.365845%)" offset="0.625"/><stop stop-opacity="1" stop-color="rgb(78.33252%, 41.238403%, 84.237671%)" offset="0.628906"/><stop stop-opacity="1" stop-color="rgb(78.709412%, 41.217041%, 84.111023%)" offset="0.632812"/><stop stop-opacity="1" stop-color="rgb(79.084778%, 41.195679%, 83.982849%)" offset="0.636719"/><stop stop-opacity="1" stop-color="rgb(79.46167%, 41.174316%, 83.854675%)" offset="0.640625"/><stop stop-opacity="1" stop-color="rgb(79.838562%, 41.151428%, 83.726501%)" offset="0.644531"/><stop stop-opacity="1" stop-color="rgb(80.215454%, 41.130066%, 83.599854%)" offset="0.648438"/><stop stop-opacity="1" stop-color="rgb(80.592346%, 41.108704%, 83.47168%)" offset="0.652344"/><stop stop-opacity="1" stop-color="rgb(80.969238%, 41.087341%, 83.345032%)" offset="0.65625"/><stop stop-opacity="1" stop-color="rgb(81.34613%, 41.065979%, 83.216858%)" offset="0.660156"/><stop stop-opacity="1" stop-color="rgb(81.723022%, 41.044617%, 83.09021%)" offset="0.664062"/><stop stop-opacity="1" stop-color="rgb(82.099915%, 41.023254%, 82.962036%)" offset="0.667969"/><stop stop-opacity="1" stop-color="rgb(82.476807%, 41.001892%, 82.833862%)" offset="0.671875"/><stop stop-opacity="1" stop-color="rgb(82.853699%, 40.979004%, 82.705688%)" offset="0.675781"/><stop stop-opacity="1" stop-color="rgb(83.230591%, 40.957642%, 82.579041%)" offset="0.679688"/><stop stop-opacity="1" stop-color="rgb(83.605957%, 40.936279%, 82.450867%)" offset="0.683594"/><stop stop-opacity="1" stop-color="rgb(83.982849%, 40.914917%, 82.324219%)" offset="0.6875"/><stop stop-opacity="1" stop-color="rgb(84.359741%, 40.893555%, 82.196045%)" offset="0.691406"/><stop stop-opacity="1" stop-color="rgb(84.736633%, 40.872192%, 82.069397%)" offset="0.695312"/><stop stop-opacity="1" stop-color="rgb(85.113525%, 40.85083%, 81.941223%)" offset="0.699219"/><stop stop-opacity="1" stop-color="rgb(85.490417%, 40.829468%, 81.813049%)" offset="0.703125"/><stop stop-opacity="1" stop-color="rgb(85.86731%, 40.80658%, 81.684875%)" offset="0.707031"/><stop stop-opacity="1" stop-color="rgb(86.244202%, 40.785217%, 81.558228%)" offset="0.710938"/><stop stop-opacity="1" stop-color="rgb(86.621094%, 40.763855%, 81.430054%)" offset="0.714844"/><stop stop-opacity="1" stop-color="rgb(86.997986%, 40.742493%, 81.303406%)" offset="0.71875"/><stop stop-opacity="1" stop-color="rgb(87.374878%, 40.72113%, 81.175232%)" offset="0.722656"/><stop stop-opacity="1" stop-color="rgb(87.75177%, 40.699768%, 81.047058%)" offset="0.726562"/><stop stop-opacity="1" stop-color="rgb(88.127136%, 40.678406%, 80.918884%)" offset="0.730469"/><stop stop-opacity="1" stop-color="rgb(88.504028%, 40.657043%, 80.792236%)" offset="0.734375"/><stop stop-opacity="1" stop-color="rgb(88.88092%, 40.634155%, 80.664062%)" offset="0.738281"/><stop stop-opacity="1" stop-color="rgb(89.257812%, 40.612793%, 80.537415%)" offset="0.742187"/><stop stop-opacity="1" stop-color="rgb(89.634705%, 40.591431%, 80.409241%)" offset="0.746094"/><stop stop-opacity="1" stop-color="rgb(90.011597%, 40.570068%, 80.282593%)" offset="0.75"/><stop stop-opacity="1" stop-color="rgb(90.388489%, 40.548706%, 80.154419%)" offset="0.753906"/><stop stop-opacity="1" stop-color="rgb(90.765381%, 40.527344%, 80.026245%)" offset="0.757812"/><stop stop-opacity="1" stop-color="rgb(91.142273%, 40.505981%, 79.898071%)" offset="0.761719"/><stop stop-opacity="1" stop-color="rgb(91.519165%, 40.484619%, 79.771423%)" offset="0.765625"/><stop stop-opacity="1" stop-color="rgb(91.894531%, 40.461731%, 79.64325%)" offset="0.769531"/><stop stop-opacity="1" stop-color="rgb(92.271423%, 40.440369%, 79.516602%)" offset="0.773437"/><stop stop-opacity="1" stop-color="rgb(92.648315%, 40.419006%, 79.388428%)" offset="0.777344"/><stop stop-opacity="1" stop-color="rgb(93.025208%, 40.397644%, 79.26178%)" offset="0.78125"/><stop stop-opacity="1" stop-color="rgb(93.4021%, 40.376282%, 79.133606%)" offset="0.785156"/><stop stop-opacity="1" stop-color="rgb(93.778992%, 40.354919%, 79.005432%)" offset="0.789062"/><stop stop-opacity="1" stop-color="rgb(94.155884%, 40.333557%, 78.877258%)" offset="0.792969"/><stop stop-opacity="1" stop-color="rgb(94.532776%, 40.312195%, 78.75061%)" offset="0.796875"/><stop stop-opacity="1" stop-color="rgb(94.909668%, 40.290833%, 78.622437%)" offset="0.800781"/><stop stop-opacity="1" stop-color="rgb(95.28656%, 40.26947%, 78.495789%)" offset="0.804687"/><stop stop-opacity="1" stop-color="rgb(95.663452%, 40.246582%, 78.367615%)" offset="0.808594"/><stop stop-opacity="1" stop-color="rgb(96.040344%, 40.22522%, 78.240967%)" offset="0.8125"/><stop stop-opacity="1" stop-color="rgb(96.41571%, 40.203857%, 78.112793%)" offset="0.816406"/><stop stop-opacity="1" stop-color="rgb(96.792603%, 40.182495%, 77.984619%)" offset="0.820312"/><stop stop-opacity="1" stop-color="rgb(97.169495%, 40.161133%, 77.856445%)" offset="0.824219"/><stop stop-opacity="1" stop-color="rgb(97.546387%, 40.139771%, 77.729797%)" offset="0.828125"/><stop stop-opacity="1" stop-color="rgb(97.923279%, 40.118408%, 77.601624%)" offset="0.832031"/><stop stop-opacity="1" stop-color="rgb(98.300171%, 40.097046%, 77.474976%)" offset="0.835937"/><stop stop-opacity="1" stop-color="rgb(98.677063%, 40.074158%, 77.346802%)" offset="0.839844"/><stop stop-opacity="1" stop-color="rgb(99.053955%, 40.052795%, 77.220154%)" offset="0.84375"/><stop stop-opacity="1" stop-color="rgb(99.430847%, 40.031433%, 77.09198%)" offset="0.847656"/><stop stop-opacity="1" stop-color="rgb(99.807739%, 40.010071%, 76.963806%)" offset="0.851562"/><stop stop-opacity="1" stop-color="rgb(99.90387%, 40.003967%, 76.931763%)" offset="0.859375"/><stop stop-opacity="1" stop-color="rgb(100%, 39.99939%, 76.899719%)" offset="0.875"/><stop stop-opacity="1" stop-color="rgb(100%, 39.99939%, 76.899719%)" offset="1"/></linearGradient><clipPath id="cc37c3cca4"><path d="M 113 146.515625 L 637 146.515625 L 637 603.265625 L 113 603.265625 Z M 113 146.515625 " clip-rule="nonzero"/></clipPath></defs><g clip-path="url(#8600676ab9)"><g clip-path="url(#37877d7a22)"><g clip-path="url(#e4fb212e3e)"><path fill="url(#9771eb5e7b)" d="M -375 375 L 375 1125 L 1125 375 L 375 -375 Z M -375 375 " fill-rule="nonzero"/></g></g></g><g clip-path="url(#cc37c3cca4)"><path fill="#ffffff" d="M 634.800781 254.171875 L 551.929688 181.375 C 551.300781 180.820312 550.585938 180.410156 549.789062 180.140625 L 451.027344 146.925781 C 450.988281 146.914062 450.949219 146.902344 450.90625 146.890625 C 450.78125 146.851562 450.65625 146.816406 450.527344 146.785156 C 450.441406 146.761719 450.355469 146.746094 450.265625 146.726562 C 450.164062 146.707031 450.0625 146.6875 449.960938 146.671875 C 449.847656 146.65625 449.734375 146.640625 449.625 146.632812 C 449.542969 146.625 449.460938 146.617188 449.378906 146.609375 C 449.253906 146.601562 449.128906 146.601562 449 146.601562 C 448.929688 146.601562 448.859375 146.601562 448.789062 146.605469 C 448.660156 146.609375 448.53125 146.617188 448.398438 146.632812 C 448.328125 146.640625 448.257812 146.648438 448.1875 146.65625 C 448.0625 146.671875 447.941406 146.695312 447.820312 146.71875 C 447.742188 146.734375 447.660156 146.75 447.582031 146.765625 C 447.472656 146.792969 447.367188 146.824219 447.257812 146.855469 C 447.167969 146.878906 447.082031 146.90625 446.992188 146.9375 C 446.90625 146.964844 446.800781 147.007812 446.707031 147.042969 C 446.613281 147.082031 446.519531 147.121094 446.429688 147.160156 C 446.335938 147.203125 446.253906 147.246094 446.167969 147.289062 C 446.078125 147.332031 445.984375 147.382812 445.894531 147.433594 C 445.804688 147.488281 445.714844 147.542969 445.625 147.601562 C 445.546875 147.652344 445.46875 147.703125 445.390625 147.757812 C 445.285156 147.832031 445.183594 147.914062 445.082031 147.996094 C 445.027344 148.039062 444.972656 148.082031 444.921875 148.125 C 444.785156 148.242188 444.65625 148.363281 444.535156 148.492188 C 444.515625 148.507812 444.5 148.523438 444.480469 148.539062 C 434.152344 159.335938 405.589844 166.878906 375.019531 166.878906 C 344.449219 166.878906 315.886719 159.335938 305.558594 148.539062 L 305.542969 148.519531 C 305.40625 148.378906 305.265625 148.246094 305.117188 148.117188 C 305.074219 148.082031 305.03125 148.050781 304.988281 148.015625 C 304.875 147.921875 304.761719 147.832031 304.640625 147.75 C 304.578125 147.703125 304.511719 147.664062 304.445312 147.621094 C 304.34375 147.554688 304.242188 147.488281 304.136719 147.425781 C 304.0625 147.382812 303.984375 147.34375 303.90625 147.304688 C 303.804688 147.253906 303.703125 147.199219 303.597656 147.152344 C 303.519531 147.121094 303.445312 147.089844 303.367188 147.058594 C 303.257812 147.011719 303.140625 146.96875 303.023438 146.929688 C 302.957031 146.90625 302.890625 146.886719 302.820312 146.867188 C 302.691406 146.828125 302.5625 146.789062 302.429688 146.761719 C 302.371094 146.746094 302.316406 146.734375 302.261719 146.726562 C 302.113281 146.695312 301.96875 146.667969 301.820312 146.652344 L 301.683594 146.636719 C 301.527344 146.621094 301.371094 146.609375 301.214844 146.601562 C 301.171875 146.601562 301.128906 146.601562 301.082031 146.601562 C 300.929688 146.601562 300.78125 146.601562 300.628906 146.613281 C 300.570312 146.617188 300.515625 146.625 300.460938 146.628906 C 300.324219 146.640625 300.191406 146.65625 300.054688 146.675781 C 299.972656 146.691406 299.894531 146.707031 299.8125 146.722656 C 299.707031 146.742188 299.597656 146.765625 299.496094 146.792969 C 299.390625 146.820312 299.269531 146.851562 299.15625 146.886719 C 299.109375 146.902344 299.0625 146.910156 299.011719 146.929688 L 200.253906 180.140625 C 199.457031 180.40625 198.742188 180.820312 198.113281 181.375 L 115.242188 254.171875 C 114.945312 254.429688 114.675781 254.71875 114.433594 255.027344 C 114.191406 255.339844 113.980469 255.671875 113.796875 256.023438 C 113.617188 256.375 113.472656 256.738281 113.359375 257.117188 C 113.25 257.496094 113.175781 257.882812 113.136719 258.277344 C 113.097656 258.671875 113.09375 259.0625 113.128906 259.457031 C 113.167969 259.851562 113.238281 260.238281 113.347656 260.617188 C 113.453125 260.996094 113.597656 261.363281 113.773438 261.714844 C 113.953125 262.070312 114.160156 262.402344 114.402344 262.714844 L 177.269531 344.753906 C 177.519531 345.078125 177.800781 345.378906 178.113281 345.652344 C 178.421875 345.925781 178.753906 346.164062 179.113281 346.371094 C 179.46875 346.578125 179.84375 346.746094 180.234375 346.878906 C 180.625 347.011719 181.027344 347.105469 181.433594 347.160156 C 181.84375 347.214844 182.253906 347.226562 182.667969 347.199219 C 183.078125 347.171875 183.484375 347.105469 183.882812 347 C 184.28125 346.894531 184.664062 346.75 185.035156 346.566406 C 185.40625 346.386719 185.753906 346.167969 186.082031 345.917969 L 229.765625 312.441406 L 229.765625 570.144531 C 229.765625 571.238281 230.03125 572.257812 230.566406 573.214844 C 231.097656 574.167969 231.832031 574.929688 232.761719 575.5 C 233.238281 575.792969 244.726562 582.761719 268.121094 589.667969 C 306.636719 601.03125 347.511719 603.417969 375.023438 603.417969 C 424.859375 603.417969 460.664062 595.941406 481.921875 589.667969 C 505.316406 582.761719 516.804688 575.792969 517.28125 575.5 C 518.210938 574.929688 518.941406 574.167969 519.476562 573.214844 C 520.007812 572.257812 520.277344 571.238281 520.277344 570.144531 L 520.277344 312.441406 L 563.960938 345.917969 C 564.289062 346.167969 564.636719 346.386719 565.007812 346.566406 C 565.378906 346.75 565.761719 346.894531 566.160156 347 C 566.558594 347.109375 566.964844 347.175781 567.375 347.199219 C 567.789062 347.226562 568.199219 347.214844 568.609375 347.160156 C 569.015625 347.105469 569.417969 347.011719 569.808594 346.878906 C 570.199219 346.746094 570.574219 346.578125 570.929688 346.371094 C 571.289062 346.164062 571.621094 345.925781 571.929688 345.652344 C 572.242188 345.378906 572.523438 345.078125 572.773438 344.753906 L 635.640625 262.714844 C 635.882812 262.402344 636.089844 262.070312 636.269531 261.714844 C 636.445312 261.363281 636.589844 260.996094 636.695312 260.617188 C 636.804688 260.238281 636.875 259.851562 636.914062 259.457031 C 636.949219 259.0625 636.945312 258.671875 636.90625 258.277344 C 636.867188 257.882812 636.792969 257.496094 636.683594 257.117188 C 636.570312 256.738281 636.425781 256.375 636.246094 256.023438 C 636.0625 255.671875 635.851562 255.339844 635.609375 255.027344 C 635.367188 254.71875 635.097656 254.429688 634.800781 254.171875 Z M 375.023438 197.773438 C 372.296875 197.761719 369.582031 197.601562 366.878906 197.285156 C 364.171875 196.972656 361.492188 196.507812 358.839844 195.898438 C 356.183594 195.285156 353.574219 194.527344 351.003906 193.621094 C 348.4375 192.71875 345.925781 191.671875 343.472656 190.488281 C 341.019531 189.304688 338.640625 187.988281 336.335938 186.539062 C 334.03125 185.085938 331.8125 183.515625 329.679688 181.816406 C 327.550781 180.121094 325.523438 178.308594 323.59375 176.386719 C 321.667969 174.460938 319.851562 172.4375 318.148438 170.308594 C 333.355469 176.085938 353.421875 179.449219 375.023438 179.449219 C 396.621094 179.449219 416.6875 176.085938 431.894531 170.308594 C 430.191406 172.4375 428.375 174.460938 426.449219 176.386719 C 424.519531 178.308594 422.492188 180.117188 420.359375 181.816406 C 418.230469 183.515625 416.011719 185.085938 413.707031 186.539062 C 411.402344 187.988281 409.023438 189.304688 406.570312 190.488281 C 404.117188 191.671875 401.605469 192.71875 399.039062 193.621094 C 396.46875 194.527344 393.859375 195.285156 391.203125 195.898438 C 388.550781 196.507812 385.871094 196.972656 383.164062 197.285156 C 380.460938 197.601562 377.746094 197.761719 375.023438 197.773438 Z M 183.425781 332.117188 L 127.957031 259.734375 L 201.171875 195.417969 C 207.460938 204.898438 213.050781 216.542969 217.820312 230.152344 C 225.046875 250.769531 229.015625 273.125 229.660156 296.683594 Z M 507.703125 566.410156 C 496.492188 572.101562 453.605469 590.847656 375.023438 590.847656 C 327.0625 590.847656 292.710938 583.753906 272.339844 577.804688 C 256.90625 573.296875 246.949219 568.75 242.335938 566.40625 L 242.335938 299.707031 C 242.335938 299.5 242.3125 299.296875 242.292969 299.097656 C 241.859375 273.226562 237.625 248.652344 229.683594 225.996094 C 224.71875 211.835938 218.867188 199.5625 212.242188 189.375 L 297.488281 160.703125 C 300.644531 167.542969 304.636719 173.855469 309.460938 179.640625 C 314.289062 185.425781 319.785156 190.484375 325.949219 194.816406 C 329.515625 197.335938 333.253906 199.566406 337.167969 201.507812 C 341.078125 203.449219 345.113281 205.078125 349.277344 206.398438 C 353.441406 207.714844 357.679688 208.703125 361.996094 209.367188 C 366.3125 210.027344 370.65625 210.355469 375.023438 210.347656 C 379.386719 210.355469 383.730469 210.027344 388.046875 209.367188 C 392.363281 208.703125 396.601562 207.714844 400.765625 206.398438 C 404.929688 205.078125 408.964844 203.449219 412.875 201.507812 C 416.789062 199.566406 420.527344 197.335938 424.09375 194.816406 C 430.257812 190.484375 435.753906 185.425781 440.582031 179.640625 C 445.40625 173.855469 449.398438 167.542969 452.554688 160.703125 L 537.800781 189.371094 C 531.171875 199.558594 525.324219 211.835938 520.359375 225.996094 C 512.414062 248.652344 508.183594 273.222656 507.75 299.09375 C 507.730469 299.296875 507.703125 299.5 507.703125 299.703125 Z M 566.617188 332.117188 L 520.382812 296.683594 C 521.023438 273.128906 524.992188 250.773438 532.222656 230.15625 C 536.992188 216.546875 542.578125 204.902344 548.871094 195.421875 L 622.089844 259.734375 Z M 566.617188 332.117188 " fill-opacity="1" fill-rule="nonzero"/></g></svg>